<svg 
 xmlns="http://www.w3.org/2000/svg"
 xmlns:xlink="http://www.w3.org/1999/xlink"
 width="15px" height="14px">
<path fill-rule="evenodd"  fill="rgb(161, 161, 161)"
 d="M13.920,10.779 C13.496,12.337 12.480,13.258 10.904,13.511 C10.315,13.606 8.724,13.663 7.136,13.663 C5.510,13.663 3.886,13.603 3.340,13.461 C1.791,13.061 0.867,12.052 0.621,10.483 C0.437,9.331 0.418,3.978 0.750,2.815 C1.184,1.301 2.195,0.412 3.727,0.160 C4.421,0.046 5.779,0.006 7.150,0.006 C8.425,0.006 9.711,0.041 10.485,0.083 C11.423,0.133 12.281,0.434 12.978,1.104 C13.643,1.740 13.983,2.535 14.068,3.435 C14.170,4.509 14.236,9.589 13.920,10.779 ZM12.839,3.550 C12.717,2.348 11.982,1.559 10.794,1.372 C10.205,1.283 8.788,1.243 7.378,1.243 C6.018,1.243 4.664,1.280 4.069,1.344 C2.878,1.482 2.077,2.217 1.886,3.402 C1.691,4.657 1.693,9.353 1.839,10.297 C1.991,11.278 2.546,11.953 3.525,12.227 C4.055,12.376 5.643,12.429 7.199,12.429 C8.632,12.429 10.039,12.384 10.567,12.326 C11.770,12.194 12.565,11.454 12.755,10.258 C12.951,9.057 12.951,4.674 12.839,3.550 ZM10.982,4.021 C10.527,4.016 10.167,3.648 10.171,3.199 C10.174,2.747 10.539,2.382 10.990,2.382 L10.999,2.382 C11.450,2.382 11.814,2.749 11.811,3.204 C11.807,3.654 11.437,4.021 10.982,4.021 ZM7.292,10.340 C5.355,10.340 3.804,8.771 3.818,6.835 C3.834,4.899 5.414,3.330 7.350,3.336 C9.281,3.336 10.838,4.905 10.823,6.841 C10.809,8.771 9.228,10.340 7.292,10.340 ZM7.357,4.570 L7.337,4.570 C6.096,4.570 5.073,5.569 5.053,6.813 C5.033,8.064 6.028,9.090 7.279,9.100 L7.299,9.101 C8.541,9.101 9.563,8.101 9.584,6.857 C9.604,5.601 8.608,4.581 7.357,4.570 Z"/>
</svg>