<svg 
 xmlns="http://www.w3.org/2000/svg"
 xmlns:xlink="http://www.w3.org/1999/xlink"
 width="19px" height="12px">
<path fill-rule="evenodd"  fill="rgb(161, 161, 161)"
 d="M18.929,4.964 L18.929,5.019 L18.918,6.461 L18.917,6.521 L18.857,6.521 L16.926,6.521 L16.911,8.452 L16.911,8.507 L16.856,8.507 L15.408,8.507 L15.353,8.507 L15.354,8.452 L15.368,6.521 L13.438,6.521 L13.377,6.521 L13.378,6.461 L13.389,5.019 L13.389,4.964 L13.450,4.964 L15.380,4.964 L15.395,3.028 L15.395,2.973 L15.450,2.973 L16.898,2.973 L16.953,2.973 L16.953,3.028 L16.938,4.964 L18.869,4.964 L18.929,4.964 ZM8.139,11.541 C7.632,11.672 7.117,11.736 6.599,11.736 C6.489,11.736 6.378,11.733 6.267,11.727 C5.149,11.661 4.132,11.310 3.231,10.646 C2.069,9.791 1.338,8.650 1.030,7.240 C0.919,6.730 0.879,6.220 0.922,5.705 C1.002,4.487 1.427,3.395 2.208,2.446 C3.016,1.453 4.046,0.806 5.278,0.494 C5.591,0.411 5.904,0.362 6.222,0.345 C6.403,0.340 6.585,0.329 6.766,0.329 C7.731,0.340 8.634,0.581 9.464,1.069 C10.021,1.388 10.337,1.711 10.473,1.810 C9.904,2.369 9.357,2.918 8.799,3.466 C8.384,3.109 7.926,2.781 7.132,2.660 C6.967,2.636 6.804,2.624 6.645,2.624 C5.051,2.624 3.715,3.777 3.360,5.287 C3.275,5.627 3.251,5.973 3.280,6.319 C3.402,7.723 4.342,8.875 5.611,9.286 C5.935,9.388 6.270,9.436 6.607,9.436 C6.686,9.436 6.765,9.434 6.844,9.429 C7.443,9.390 8.003,9.231 8.510,8.897 C9.365,8.315 9.641,7.405 9.643,7.180 L6.588,7.180 C6.588,7.105 6.599,5.677 6.604,4.980 L6.610,4.887 L11.974,4.887 C12.263,6.560 12.003,8.320 10.961,9.697 C10.241,10.646 9.282,11.244 8.139,11.541 Z"/>
</svg>