<svg 
 xmlns="http://www.w3.org/2000/svg"
 xmlns:xlink="http://www.w3.org/1999/xlink"
 width="6px" height="10px">
<path fill-rule="evenodd"  fill="rgb(36, 63, 77)"
 d="M0.472,9.538 C0.591,9.538 0.710,9.492 0.803,9.398 L5.024,5.133 C5.028,5.128 5.032,5.124 5.037,5.120 C5.077,5.077 5.109,5.028 5.132,4.976 C5.132,4.976 5.132,4.977 5.132,4.975 C5.162,4.907 5.177,4.832 5.177,4.758 C5.177,4.757 5.177,4.757 5.177,4.756 C5.177,4.684 5.162,4.611 5.133,4.545 C5.133,4.544 5.133,4.544 5.133,4.544 C5.133,4.544 5.133,4.544 5.133,4.543 C5.109,4.490 5.077,4.440 5.035,4.396 C5.032,4.391 5.028,4.387 5.024,4.384 L0.803,0.119 C0.609,-0.076 0.306,-0.067 0.123,0.138 C0.035,0.237 -0.008,0.364 -0.008,0.490 C-0.008,0.626 0.042,0.762 0.141,0.862 L3.998,4.758 L0.141,8.655 C0.042,8.755 -0.008,8.891 -0.008,9.026 C-0.008,9.153 0.035,9.280 0.123,9.379 C0.218,9.485 0.345,9.538 0.472,9.538 Z"/>
</svg>