<svg 
 xmlns="http://www.w3.org/2000/svg"
 xmlns:xlink="http://www.w3.org/1999/xlink"
 width="51px" height="52px">
<path fill-rule="evenodd"  opacity="0.2" fill="rgb(163, 187, 200)"
 d="M25.672,0.531 C39.660,0.531 51.000,11.871 51.000,25.859 C51.000,39.847 39.660,51.187 25.672,51.187 C11.683,51.187 0.344,39.847 0.344,25.859 C0.344,11.871 11.683,0.531 25.672,0.531 Z"/>
<path fill-rule="evenodd"  fill="rgb(36, 63, 77)"
 d="M32.321,32.610 C31.899,33.064 30.327,34.025 28.590,32.318 L26.532,29.968 C25.752,30.313 24.891,30.507 23.983,30.507 C20.515,30.507 17.705,27.705 17.705,24.250 C17.705,20.794 20.512,17.996 23.980,17.996 C27.445,17.996 30.259,20.797 30.259,24.253 C30.259,25.182 30.056,26.065 29.691,26.857 L32.027,28.893 C33.730,30.640 32.773,32.159 32.321,32.610 ZM23.980,19.305 C21.238,19.305 19.015,21.521 19.015,24.253 C19.015,26.985 21.235,29.201 23.980,29.201 C26.722,29.201 28.946,26.985 28.946,24.253 C28.946,21.521 26.722,19.305 23.980,19.305 ZM31.179,29.866 L29.017,27.986 C28.634,28.498 28.175,28.953 27.654,29.326 L29.526,31.513 C29.819,31.837 30.652,32.380 31.407,31.739 C31.616,31.563 32.040,30.671 31.179,29.866 ZM23.494,28.085 C22.683,27.923 21.937,27.535 21.351,26.954 C20.768,26.373 20.378,25.627 20.215,24.818 C20.150,24.464 20.343,24.142 20.702,24.076 C21.058,24.011 21.382,24.207 21.448,24.560 C21.544,25.142 21.803,25.627 22.227,26.049 C22.648,26.438 23.169,26.727 23.721,26.826 C24.046,26.892 24.273,27.216 24.208,27.569 C24.142,27.893 23.849,28.125 23.494,28.085 Z"/>
</svg>