<svg 
 xmlns="http://www.w3.org/2000/svg"
 xmlns:xlink="http://www.w3.org/1999/xlink"
 width="16px" height="16px">
<path fill-rule="evenodd"  fill="rgb(36, 63, 77)"
 d="M15.321,14.610 C14.899,15.064 13.327,16.025 11.590,14.318 L9.532,11.968 C8.752,12.313 7.891,12.507 6.983,12.507 C3.515,12.507 0.705,9.705 0.705,6.250 C0.705,2.794 3.512,-0.004 6.980,-0.004 C10.445,-0.004 13.259,2.797 13.259,6.253 C13.259,7.182 13.056,8.065 12.691,8.857 L15.027,10.893 C16.730,12.640 15.773,14.159 15.321,14.610 ZM6.980,1.305 C4.238,1.305 2.015,3.521 2.015,6.253 C2.015,8.985 4.235,11.201 6.980,11.201 C9.722,11.201 11.946,8.985 11.946,6.253 C11.946,3.521 9.722,1.305 6.980,1.305 ZM14.179,11.866 L12.017,9.986 C11.634,10.498 11.175,10.953 10.654,11.326 L12.526,13.513 C12.819,13.837 13.652,14.380 14.407,13.739 C14.616,13.563 15.040,12.671 14.179,11.866 ZM6.494,10.085 C5.683,9.923 4.937,9.535 4.351,8.954 C3.768,8.373 3.378,7.627 3.215,6.818 C3.150,6.464 3.343,6.142 3.702,6.076 C4.058,6.011 4.382,6.207 4.448,6.560 C4.544,7.142 4.803,7.627 5.227,8.049 C5.648,8.438 6.169,8.727 6.721,8.826 C7.046,8.892 7.273,9.216 7.208,9.569 C7.142,9.893 6.849,10.125 6.494,10.085 Z"/>
</svg>